<svg xmlns="http://www.w3.org/2000/svg" xmlns:xlink="http://www.w3.org/1999/xlink" width="882" zoomAndPan="magnify" viewBox="308 21 882 1215" height="1215" preserveAspectRatio="xMidYMid meet" version="1.0"><defs><g/><clipPath id="b8f3de0a20"><path d="M 757.0625 184.054688 L 1103.859375 184.054688 L 1103.859375 925.527344 L 757.0625 925.527344 Z M 757.0625 184.054688 " clip-rule="nonzero"/></clipPath><clipPath id="550c1b1197"><path d="M 395.859375 184 L 743 184 L 743 925.828125 L 395.859375 925.828125 Z M 395.859375 184 " clip-rule="nonzero"/></clipPath><clipPath id="9fd47c3a76"><path d="M 684 41.578125 L 815 41.578125 L 815 172 L 684 172 Z M 684 41.578125 " clip-rule="nonzero"/></clipPath><clipPath id="7c1aa07fbe"><rect x="0" width="844" y="0" height="251"/></clipPath></defs><path fill="#161315" d="M 959.859375 302.273438 C 983.480469 322.117188 986.539062 357.351562 966.691406 380.96875 C 946.847656 404.585938 911.613281 407.644531 887.996094 387.800781 C 864.382812 367.957031 861.316406 332.722656 881.167969 309.101562 C 901.007812 285.484375 936.242188 282.425781 959.859375 302.273438 " fill-opacity="1" fill-rule="nonzero"/><path fill="#161315" d="M 1024.847656 359.113281 C 1025.539062 360.5625 1025.378906 362.347656 1024.273438 363.65625 C 1023.167969 364.972656 1021.441406 365.4375 1019.890625 365.007812 L 1019.5 365.476562 L 1007.164062 391.980469 L 992.828125 379.933594 L 1016.8125 363.21875 L 1017.207031 362.75 C 1016.511719 361.296875 1016.675781 359.511719 1017.78125 358.203125 C 1018.878906 356.886719 1020.609375 356.421875 1022.160156 356.851562 L 1042.367188 332.804688 L 1027.835938 306.832031 L 1034.839844 330.285156 L 1018.210938 324.71875 L 992.167969 355.71875 C 995.742188 332.621094 987.535156 308.25 968.375 292.144531 C 949.527344 276.308594 924.640625 272.308594 902.765625 279.3125 L 928.175781 249.066406 L 907.816406 211.453125 L 1007.382812 246.207031 L 1058.769531 338.289062 L 1045.945312 334 L 1024.847656 359.113281 " fill-opacity="1" fill-rule="nonzero"/><g clip-path="url(#b8f3de0a20)"><path fill="#161315" d="M 885.382812 818.742188 C 885.382812 818.742188 796.507812 794.332031 795.824219 632.734375 C 795.53125 563.796875 807.863281 508.726562 786.339844 408.832031 C 764.820312 308.9375 750.402344 244.265625 761.378906 184.929688 C 761.378906 184.929688 781.15625 317.105469 885.382812 379.554688 C 1016.320312 458 1073.117188 543.171875 1069.671875 644.789062 C 1069.671875 644.789062 1028.75 543.46875 934.679688 517.011719 C 934.679688 517.011719 927.3125 801.523438 1104.117188 925.527344 C 1104.117188 925.527344 953.296875 899.183594 856.105469 656.84375 C 856.105469 656.84375 842.328125 770.519531 885.382812 818.742188 " fill-opacity="1" fill-rule="nonzero"/></g><path fill="#e8611a" d="M 540.113281 302.273438 C 516.5 322.117188 513.4375 357.351562 533.285156 380.96875 C 553.128906 404.585938 588.363281 407.644531 611.980469 387.800781 C 635.597656 367.957031 638.65625 332.722656 618.8125 309.101562 C 598.964844 285.484375 563.730469 282.425781 540.113281 302.273438 " fill-opacity="1" fill-rule="nonzero"/><path fill="#e8611a" d="M 475.132812 359.113281 C 474.4375 360.5625 474.601562 362.347656 475.707031 363.65625 C 476.804688 364.972656 478.535156 365.4375 480.085938 365.007812 L 480.476562 365.476562 L 492.816406 391.980469 L 507.148438 379.933594 L 483.167969 363.21875 L 482.773438 362.75 C 483.464844 361.296875 483.304688 359.511719 482.199219 358.203125 C 481.09375 356.886719 479.367188 356.421875 477.816406 356.851562 L 457.613281 332.804688 L 472.136719 306.832031 L 465.140625 330.285156 L 481.769531 324.71875 L 507.8125 355.71875 C 504.234375 332.621094 512.441406 308.25 531.605469 292.144531 C 550.449219 276.308594 575.339844 272.308594 597.207031 279.3125 L 571.804688 249.066406 L 592.15625 211.453125 L 492.597656 246.207031 L 441.207031 338.289062 L 454.03125 334 L 475.132812 359.113281 " fill-opacity="1" fill-rule="nonzero"/><g clip-path="url(#550c1b1197)"><path fill="#e8611a" d="M 614.597656 818.742188 C 614.597656 818.742188 703.46875 794.332031 704.15625 632.734375 C 704.449219 563.796875 692.113281 508.726562 713.632812 408.832031 C 735.15625 308.9375 749.574219 244.265625 738.601562 184.929688 C 738.601562 184.929688 718.820312 317.105469 614.597656 379.554688 C 483.660156 458 426.859375 543.171875 430.304688 644.789062 C 430.304688 644.789062 471.222656 543.46875 565.300781 517.011719 C 565.300781 517.011719 572.667969 801.523438 395.859375 925.527344 C 395.859375 925.527344 546.675781 899.183594 643.875 656.84375 C 643.875 656.84375 657.652344 770.519531 614.597656 818.742188 " fill-opacity="1" fill-rule="nonzero"/></g><g clip-path="url(#9fd47c3a76)"><path fill="#ffd700" d="M 747.605469 158.492188 L 749.617188 171.679688 L 751.40625 158.457031 C 754.902344 132.542969 775.0625 112.027344 800.914062 108.085938 L 814.105469 106.078125 L 800.878906 104.289062 C 774.964844 100.792969 754.453125 80.632812 750.511719 54.777344 L 748.496094 41.589844 L 746.710938 54.8125 C 743.214844 80.726562 723.054688 101.238281 697.203125 105.183594 L 684.011719 107.195312 L 697.238281 108.980469 C 723.152344 112.476562 743.660156 132.640625 747.605469 158.492188 " fill-opacity="1" fill-rule="nonzero"/></g><g transform="matrix(1, 0, 0, 1, 328, 943)"><g clip-path="url(#7c1aa07fbe)"><g fill="#231f20" fill-opacity="1"><g transform="translate(0.680138, 152.220646)"><g><path d="M 49.1875 -85.734375 C 55.226562 -85.734375 60.429688 -85.035156 64.796875 -83.640625 C 69.160156 -82.253906 72.707031 -80.648438 75.4375 -78.828125 C 78.175781 -77.003906 80.191406 -75.394531 81.484375 -74 C 82.773438 -72.613281 83.421875 -71.921875 83.421875 -71.921875 L 83.421875 -62.140625 L 78.6875 -62.140625 L 78.390625 -63.4375 C 77.523438 -68.039062 74.984375 -72.113281 70.765625 -75.65625 C 66.546875 -79.207031 60.84375 -80.984375 53.65625 -80.984375 C 47.132812 -80.984375 41.664062 -79.304688 37.25 -75.953125 C 32.84375 -72.597656 29.535156 -67.992188 27.328125 -62.140625 C 25.117188 -56.285156 24.015625 -49.570312 24.015625 -42 C 24.015625 -34.425781 25.117188 -27.691406 27.328125 -21.796875 C 29.535156 -15.898438 32.84375 -11.269531 37.25 -7.90625 C 41.664062 -4.550781 47.132812 -2.875 53.65625 -2.875 C 58.445312 -2.875 62.59375 -3.710938 66.09375 -5.390625 C 69.59375 -7.066406 72.375 -9.25 74.4375 -11.9375 C 76.5 -14.625 77.816406 -17.5 78.390625 -20.5625 L 78.6875 -21.71875 L 83.421875 -21.71875 L 83.421875 -11.9375 C 83.421875 -11.9375 82.773438 -11.238281 81.484375 -9.84375 C 80.191406 -8.457031 78.175781 -6.878906 75.4375 -5.109375 C 72.707031 -3.335938 69.160156 -1.753906 64.796875 -0.359375 C 60.429688 1.023438 55.226562 1.71875 49.1875 1.71875 C 39.601562 1.71875 31.644531 -0.242188 25.3125 -4.171875 C 18.988281 -8.097656 14.289062 -13.367188 11.21875 -19.984375 C 8.144531 -26.609375 6.609375 -33.945312 6.609375 -42 C 6.609375 -50.050781 8.144531 -57.382812 11.21875 -64 C 14.289062 -70.625 18.988281 -75.898438 25.3125 -79.828125 C 31.644531 -83.765625 39.601562 -85.734375 49.1875 -85.734375 Z M 49.1875 -85.734375 "/></g></g></g><g fill="#231f20" fill-opacity="1"><g transform="translate(90.574941, 152.220646)"><g><path d="M 49.625 -80.984375 C 43.582031 -80.984375 38.710938 -79.234375 35.015625 -75.734375 C 31.328125 -72.234375 28.644531 -67.535156 26.96875 -61.640625 C 25.289062 -55.742188 24.453125 -49.195312 24.453125 -42 C 24.453125 -34.8125 25.289062 -28.265625 26.96875 -22.359375 C 28.644531 -16.460938 31.328125 -11.738281 35.015625 -8.1875 C 38.710938 -4.644531 43.582031 -2.875 49.625 -2.875 C 55.664062 -2.875 60.53125 -4.644531 64.21875 -8.1875 C 67.914062 -11.738281 70.601562 -16.460938 72.28125 -22.359375 C 73.957031 -28.265625 74.796875 -34.8125 74.796875 -42 C 74.796875 -49.195312 73.957031 -55.742188 72.28125 -61.640625 C 70.601562 -67.535156 67.914062 -72.234375 64.21875 -75.734375 C 60.53125 -79.234375 55.664062 -80.984375 49.625 -80.984375 Z M 49.625 -85.734375 C 59.3125 -85.734375 67.296875 -83.765625 73.578125 -79.828125 C 79.859375 -75.898438 84.53125 -70.625 87.59375 -64 C 90.664062 -57.382812 92.203125 -50.050781 92.203125 -42 C 92.203125 -33.945312 90.664062 -26.609375 87.59375 -19.984375 C 84.53125 -13.367188 79.859375 -8.097656 73.578125 -4.171875 C 67.296875 -0.242188 59.3125 1.71875 49.625 1.71875 C 40.03125 1.71875 32.066406 -0.242188 25.734375 -4.171875 C 19.410156 -8.097656 14.710938 -13.367188 11.640625 -19.984375 C 8.578125 -26.609375 7.046875 -33.945312 7.046875 -42 C 7.046875 -50.050781 8.578125 -57.382812 11.640625 -64 C 14.710938 -70.625 19.410156 -75.898438 25.734375 -79.828125 C 32.066406 -83.765625 40.03125 -85.734375 49.625 -85.734375 Z M 49.625 -85.734375 "/></g></g></g><g fill="#231f20" fill-opacity="1"><g transform="translate(189.674975, 152.220646)"><g><path d="M 4.609375 -4.75 L 6.765625 -4.75 C 7.816406 -4.75 8.722656 -5.109375 9.484375 -5.828125 C 10.253906 -6.546875 10.640625 -7.429688 10.640625 -8.484375 L 10.640625 -78.25 C 9.585938 -78.925781 8.242188 -79.265625 6.609375 -79.265625 L 4.609375 -79.265625 L 4.609375 -83.859375 L 36.96875 -83.859375 L 36.96875 -79.265625 L 34.234375 -79.265625 C 33.660156 -79.265625 33.132812 -79 32.65625 -78.46875 C 32.175781 -77.9375 32.078125 -77.289062 32.359375 -76.53125 L 56.671875 -20.5625 L 84.296875 -83.859375 L 107.59375 -83.859375 L 107.59375 -79.265625 L 105.578125 -79.265625 C 104.523438 -79.265625 103.585938 -78.878906 102.765625 -78.109375 C 101.953125 -77.335938 101.546875 -76.425781 101.546875 -75.375 L 101.546875 -8.484375 C 101.546875 -7.429688 101.929688 -6.546875 102.703125 -5.828125 C 103.472656 -5.109375 104.382812 -4.75 105.4375 -4.75 L 107.59375 -4.75 L 107.59375 0 L 78.25 0 L 78.25 -4.75 L 80.265625 -4.75 C 81.316406 -4.75 82.25 -5.109375 83.0625 -5.828125 C 83.882812 -6.546875 84.296875 -7.429688 84.296875 -8.484375 L 84.296875 -72.203125 L 52.078125 1.71875 L 47.46875 1.71875 L 15.25 -72.203125 L 15.25 -8.484375 C 15.25 -7.429688 15.628906 -6.546875 16.390625 -5.828125 C 17.160156 -5.109375 18.070312 -4.75 19.125 -4.75 L 21.28125 -4.75 L 21.28125 0 L 4.609375 0 Z M 4.609375 -4.75 "/></g></g></g><g fill="#231f20" fill-opacity="1"><g transform="translate(301.719894, 152.220646)"><g><path d="M 33.953125 0 L 4.609375 0 L 4.609375 -4.75 L 6.765625 -4.75 C 7.816406 -4.75 8.722656 -5.128906 9.484375 -5.890625 C 10.253906 -6.660156 10.640625 -7.570312 10.640625 -8.625 L 10.640625 -75.375 C 10.640625 -76.425781 10.253906 -77.335938 9.484375 -78.109375 C 8.722656 -78.878906 7.816406 -79.265625 6.765625 -79.265625 L 4.609375 -79.265625 L 4.609375 -83.859375 L 51.78125 -83.859375 C 56.476562 -83.859375 60.671875 -82.800781 64.359375 -80.6875 C 68.054688 -78.582031 71.007812 -75.5625 73.21875 -71.625 C 75.425781 -67.695312 76.53125 -62.953125 76.53125 -57.390625 C 76.53125 -51.828125 75.425781 -47.054688 73.21875 -43.078125 C 71.007812 -39.097656 68.054688 -36.050781 64.359375 -33.9375 C 60.671875 -31.832031 56.476562 -30.78125 51.78125 -30.78125 L 28.046875 -30.78125 L 28.046875 -8.484375 C 28.046875 -7.429688 28.425781 -6.546875 29.1875 -5.828125 C 29.957031 -5.109375 30.875 -4.75 31.9375 -4.75 L 33.953125 -4.75 Z M 28.046875 -35.390625 L 42.296875 -35.390625 C 47.273438 -35.390625 51.320312 -37.445312 54.4375 -41.5625 C 57.5625 -45.6875 59.125 -50.960938 59.125 -57.390625 C 59.125 -63.628906 57.613281 -68.832031 54.59375 -73 C 51.570312 -77.175781 47.472656 -79.265625 42.296875 -79.265625 L 28.046875 -79.265625 Z M 28.046875 -35.390625 "/></g></g></g><g fill="#231f20" fill-opacity="1"><g transform="translate(381.402679, 152.220646)"><g><path d="M 48.625 -44.296875 C 50.15625 -44.296875 51.421875 -44.800781 52.421875 -45.8125 C 53.429688 -46.820312 53.9375 -48.09375 53.9375 -49.625 L 53.9375 -51.78125 L 58.6875 -51.78125 L 58.6875 -32.078125 L 53.9375 -32.078125 L 53.9375 -34.234375 C 53.9375 -35.765625 53.429688 -37.054688 52.421875 -38.109375 C 51.421875 -39.171875 50.15625 -39.703125 48.625 -39.703125 L 28.046875 -39.703125 L 28.046875 -4.75 L 58.109375 -4.75 C 60.128906 -4.75 61.90625 -5.394531 63.4375 -6.6875 C 64.96875 -7.976562 65.78125 -9.582031 65.875 -11.5 L 65.875 -14.53125 L 70.484375 -14.53125 L 70.484375 0 L 4.609375 0 L 4.609375 -4.75 L 6.765625 -4.75 C 7.816406 -4.75 8.722656 -5.109375 9.484375 -5.828125 C 10.253906 -6.546875 10.640625 -7.429688 10.640625 -8.484375 L 10.640625 -75.375 C 10.640625 -76.425781 10.253906 -77.335938 9.484375 -78.109375 C 8.722656 -78.878906 7.816406 -79.265625 6.765625 -79.265625 L 4.609375 -79.265625 L 4.609375 -83.859375 L 70.484375 -83.859375 L 70.484375 -69.328125 L 65.875 -69.328125 L 65.875 -72.203125 C 65.78125 -74.128906 64.96875 -75.785156 63.4375 -77.171875 C 61.90625 -78.566406 60.128906 -79.265625 58.109375 -79.265625 L 28.046875 -79.265625 L 28.046875 -44.296875 Z M 48.625 -44.296875 "/></g></g></g><g fill="#231f20" fill-opacity="1"><g transform="translate(453.750011, 152.220646)"><g><path d="M 2.015625 -84 L 75.09375 -83.71875 L 75.09375 -69.46875 L 70.484375 -69.46875 L 70.34375 -72.203125 C 70.25 -74.128906 69.429688 -75.785156 67.890625 -77.171875 C 66.359375 -78.566406 64.632812 -79.265625 62.71875 -79.265625 L 47.1875 -79.265625 L 47.1875 -8.484375 C 47.1875 -7.429688 47.566406 -6.546875 48.328125 -5.828125 C 49.097656 -5.109375 50.007812 -4.75 51.0625 -4.75 L 53.21875 -4.75 L 53.21875 0 L 23.734375 0 L 23.734375 -4.75 L 25.890625 -4.75 C 26.941406 -4.75 27.851562 -5.109375 28.625 -5.828125 C 29.394531 -6.546875 29.78125 -7.429688 29.78125 -8.484375 L 29.78125 -79.265625 L 14.390625 -79.265625 C 12.460938 -79.265625 10.753906 -78.566406 9.265625 -77.171875 C 7.785156 -75.785156 6.953125 -74.128906 6.765625 -72.203125 L 6.609375 -69.46875 L 2.015625 -69.46875 Z M 2.015625 -84 "/></g></g></g><g fill="#231f20" fill-opacity="1"><g transform="translate(530.556128, 152.220646)"><g><path d="M 4.609375 -84 L 33.953125 -83.859375 L 33.953125 -79.265625 L 31.9375 -79.265625 C 30.875 -79.265625 29.957031 -78.878906 29.1875 -78.109375 C 28.425781 -77.335938 28.046875 -76.425781 28.046875 -75.375 L 28.046875 -8.484375 C 28.046875 -7.429688 28.425781 -6.546875 29.1875 -5.828125 C 29.957031 -5.109375 30.875 -4.75 31.9375 -4.75 L 33.953125 -4.75 L 33.953125 0 L 4.609375 0 L 4.609375 -4.75 L 6.765625 -4.75 C 7.816406 -4.75 8.722656 -5.109375 9.484375 -5.828125 C 10.253906 -6.546875 10.640625 -7.429688 10.640625 -8.484375 L 10.640625 -75.375 C 10.640625 -76.425781 10.253906 -77.335938 9.484375 -78.109375 C 8.722656 -78.878906 7.816406 -79.265625 6.765625 -79.265625 L 4.609375 -79.265625 Z M 4.609375 -84 "/></g></g></g><g fill="#231f20" fill-opacity="1"><g transform="translate(569.103016, 152.220646)"><g><path d="M 2.015625 -84 L 75.09375 -83.71875 L 75.09375 -69.46875 L 70.484375 -69.46875 L 70.34375 -72.203125 C 70.25 -74.128906 69.429688 -75.785156 67.890625 -77.171875 C 66.359375 -78.566406 64.632812 -79.265625 62.71875 -79.265625 L 47.1875 -79.265625 L 47.1875 -8.484375 C 47.1875 -7.429688 47.566406 -6.546875 48.328125 -5.828125 C 49.097656 -5.109375 50.007812 -4.75 51.0625 -4.75 L 53.21875 -4.75 L 53.21875 0 L 23.734375 0 L 23.734375 -4.75 L 25.890625 -4.75 C 26.941406 -4.75 27.851562 -5.109375 28.625 -5.828125 C 29.394531 -6.546875 29.78125 -7.429688 29.78125 -8.484375 L 29.78125 -79.265625 L 14.390625 -79.265625 C 12.460938 -79.265625 10.753906 -78.566406 9.265625 -77.171875 C 7.785156 -75.785156 6.953125 -74.128906 6.765625 -72.203125 L 6.609375 -69.46875 L 2.015625 -69.46875 Z M 2.015625 -84 "/></g></g></g><g fill="#231f20" fill-opacity="1"><g transform="translate(645.909132, 152.220646)"><g><path d="M 4.609375 -84 L 33.953125 -83.859375 L 33.953125 -79.265625 L 31.9375 -79.265625 C 30.875 -79.265625 29.957031 -78.878906 29.1875 -78.109375 C 28.425781 -77.335938 28.046875 -76.425781 28.046875 -75.375 L 28.046875 -8.484375 C 28.046875 -7.429688 28.425781 -6.546875 29.1875 -5.828125 C 29.957031 -5.109375 30.875 -4.75 31.9375 -4.75 L 33.953125 -4.75 L 33.953125 0 L 4.609375 0 L 4.609375 -4.75 L 6.765625 -4.75 C 7.816406 -4.75 8.722656 -5.109375 9.484375 -5.828125 C 10.253906 -6.546875 10.640625 -7.429688 10.640625 -8.484375 L 10.640625 -75.375 C 10.640625 -76.425781 10.253906 -77.335938 9.484375 -78.109375 C 8.722656 -78.878906 7.816406 -79.265625 6.765625 -79.265625 L 4.609375 -79.265625 Z M 4.609375 -84 "/></g></g></g><g fill="#231f20" fill-opacity="1"><g transform="translate(684.456021, 152.220646)"><g><path d="M 1.15625 -84 L 34.375 -84 L 34.375 -79.265625 L 30.640625 -79.265625 C 30.066406 -79.265625 29.539062 -79.019531 29.0625 -78.53125 C 28.582031 -78.050781 28.484375 -77.429688 28.765625 -76.671875 L 50.203125 -20.859375 L 71.34375 -76.671875 C 71.632812 -77.429688 71.5625 -78.050781 71.125 -78.53125 C 70.695312 -79.019531 70.195312 -79.265625 69.625 -79.265625 L 66.171875 -79.265625 L 66.171875 -84 L 85.4375 -84 L 85.4375 -79.265625 L 82.703125 -79.265625 C 81.171875 -79.265625 79.757812 -78.851562 78.46875 -78.03125 C 77.175781 -77.21875 76.238281 -76.09375 75.65625 -74.65625 L 45.59375 1.71875 L 41 1.71875 L 10.78125 -74.65625 C 10.207031 -76.09375 9.273438 -77.21875 7.984375 -78.03125 C 6.691406 -78.851562 5.273438 -79.265625 3.734375 -79.265625 L 1.15625 -79.265625 Z M 1.15625 -84 "/></g></g></g><g fill="#231f20" fill-opacity="1"><g transform="translate(770.898884, 152.220646)"><g><path d="M 48.625 -44.296875 C 50.15625 -44.296875 51.421875 -44.800781 52.421875 -45.8125 C 53.429688 -46.820312 53.9375 -48.09375 53.9375 -49.625 L 53.9375 -51.78125 L 58.6875 -51.78125 L 58.6875 -32.078125 L 53.9375 -32.078125 L 53.9375 -34.234375 C 53.9375 -35.765625 53.429688 -37.054688 52.421875 -38.109375 C 51.421875 -39.171875 50.15625 -39.703125 48.625 -39.703125 L 28.046875 -39.703125 L 28.046875 -4.75 L 58.109375 -4.75 C 60.128906 -4.75 61.90625 -5.394531 63.4375 -6.6875 C 64.96875 -7.976562 65.78125 -9.582031 65.875 -11.5 L 65.875 -14.53125 L 70.484375 -14.53125 L 70.484375 0 L 4.609375 0 L 4.609375 -4.75 L 6.765625 -4.75 C 7.816406 -4.75 8.722656 -5.109375 9.484375 -5.828125 C 10.253906 -6.546875 10.640625 -7.429688 10.640625 -8.484375 L 10.640625 -75.375 C 10.640625 -76.425781 10.253906 -77.335938 9.484375 -78.109375 C 8.722656 -78.878906 7.816406 -79.265625 6.765625 -79.265625 L 4.609375 -79.265625 L 4.609375 -83.859375 L 70.484375 -83.859375 L 70.484375 -69.328125 L 65.875 -69.328125 L 65.875 -72.203125 C 65.78125 -74.128906 64.96875 -75.785156 63.4375 -77.171875 C 61.90625 -78.566406 60.128906 -79.265625 58.109375 -79.265625 L 28.046875 -79.265625 L 28.046875 -44.296875 Z M 48.625 -44.296875 "/></g></g></g></g></g><g fill="#231f20" fill-opacity="1"><g transform="translate(495.383457, 1214.792107)"><g><path d="M 34.265625 -85.828125 C 39.742188 -85.828125 44.445312 -85.15625 48.375 -83.8125 C 52.3125 -82.46875 55.53125 -80.878906 58.03125 -79.046875 C 60.53125 -77.222656 62.351562 -75.640625 63.5 -74.296875 C 64.65625 -72.953125 65.234375 -72.28125 65.234375 -72.28125 L 65.234375 -62.203125 L 60.625 -62.203125 L 60.484375 -63.5 C 60.097656 -66.382812 58.921875 -69.171875 56.953125 -71.859375 C 54.984375 -74.546875 52.363281 -76.753906 49.09375 -78.484375 C 45.832031 -80.210938 42.140625 -81.078125 38.015625 -81.078125 C 33.691406 -81.078125 30.113281 -80.019531 27.28125 -77.90625 C 24.457031 -75.789062 23.046875 -72.625 23.046875 -68.40625 C 23.046875 -62.257812 26.210938 -57.550781 32.546875 -54.28125 L 55.296875 -42.625 C 60.097656 -40.226562 63.601562 -37.375 65.8125 -34.0625 C 68.019531 -30.75 69.125 -26.832031 69.125 -22.3125 C 69.125 -14.832031 66.289062 -8.953125 60.625 -4.671875 C 54.957031 -0.398438 47.515625 1.734375 38.296875 1.734375 C 32.441406 1.734375 27.425781 1.035156 23.25 -0.359375 C 19.070312 -1.753906 15.6875 -3.335938 13.09375 -5.109375 C 10.507812 -6.890625 8.613281 -8.472656 7.40625 -9.859375 C 6.207031 -11.253906 5.609375 -11.953125 5.609375 -11.953125 L 5.609375 -21.75 L 10.21875 -21.75 L 10.375 -20.59375 C 10.75 -17.613281 12.085938 -14.78125 14.390625 -12.09375 C 16.703125 -9.40625 19.679688 -7.195312 23.328125 -5.46875 C 26.972656 -3.738281 30.957031 -2.875 35.28125 -2.875 C 40.363281 -2.875 44.394531 -4.070312 47.375 -6.46875 C 50.351562 -8.875 51.84375 -12.191406 51.84375 -16.421875 C 51.84375 -19.003906 51.117188 -21.398438 49.671875 -23.609375 C 48.234375 -25.816406 45.691406 -27.832031 42.046875 -29.65625 L 20.59375 -40.609375 C 15.3125 -43.296875 11.492188 -46.242188 9.140625 -49.453125 C 6.785156 -52.671875 5.609375 -56.585938 5.609375 -61.203125 C 5.609375 -68.691406 8.203125 -74.664062 13.390625 -79.125 C 18.578125 -83.59375 25.535156 -85.828125 34.265625 -85.828125 Z M 34.265625 -85.828125 "/></g></g></g><g fill="#231f20" fill-opacity="1"><g transform="translate(569.975411, 1214.792107)"><g><path d="M 60.484375 -84.09375 L 89.859375 -83.953125 L 89.859375 -79.34375 L 87.84375 -79.34375 C 86.78125 -79.34375 85.84375 -78.957031 85.03125 -78.1875 C 84.21875 -77.425781 83.8125 -76.515625 83.8125 -75.453125 L 83.8125 -8.5 C 83.8125 -7.4375 84.21875 -6.546875 85.03125 -5.828125 C 85.84375 -5.109375 86.78125 -4.75 87.84375 -4.75 L 89.859375 -4.75 L 89.859375 0 L 60.484375 0 L 60.484375 -4.75 L 62.5 -4.75 C 63.550781 -4.75 64.460938 -5.109375 65.234375 -5.828125 C 66.003906 -6.546875 66.390625 -7.4375 66.390625 -8.5 L 66.390625 -39.75 L 28.078125 -39.75 L 28.078125 -8.5 C 28.078125 -7.4375 28.460938 -6.546875 29.234375 -5.828125 C 30.003906 -5.109375 30.914062 -4.75 31.96875 -4.75 L 33.984375 -4.75 L 33.984375 0 L 4.609375 0 L 4.609375 -4.75 L 6.765625 -4.75 C 7.828125 -4.75 8.738281 -5.109375 9.5 -5.828125 C 10.269531 -6.546875 10.65625 -7.4375 10.65625 -8.5 L 10.65625 -75.453125 C 10.65625 -76.796875 10.269531 -77.78125 9.5 -78.40625 C 8.738281 -79.03125 7.828125 -79.34375 6.765625 -79.34375 L 4.609375 -79.34375 L 4.609375 -84.09375 L 33.984375 -83.953125 L 33.984375 -79.34375 L 31.96875 -79.34375 C 30.914062 -79.34375 30.003906 -78.957031 29.234375 -78.1875 C 28.460938 -77.425781 28.078125 -76.515625 28.078125 -75.453125 L 28.078125 -44.359375 L 66.390625 -44.359375 L 66.390625 -75.453125 C 66.390625 -76.515625 66.003906 -77.425781 65.234375 -78.1875 C 64.460938 -78.957031 63.550781 -79.34375 62.5 -79.34375 L 60.484375 -79.34375 Z M 60.484375 -84.09375 "/></g></g></g><g fill="#231f20" fill-opacity="1"><g transform="translate(664.439366, 1214.792107)"><g><path d="M 4.609375 -84.09375 L 33.984375 -83.953125 L 33.984375 -79.34375 L 31.96875 -79.34375 C 30.914062 -79.34375 30.003906 -78.957031 29.234375 -78.1875 C 28.460938 -77.425781 28.078125 -76.515625 28.078125 -75.453125 L 28.078125 -8.5 C 28.078125 -7.4375 28.460938 -6.546875 29.234375 -5.828125 C 30.003906 -5.109375 30.914062 -4.75 31.96875 -4.75 L 33.984375 -4.75 L 33.984375 0 L 4.609375 0 L 4.609375 -4.75 L 6.765625 -4.75 C 7.828125 -4.75 8.738281 -5.109375 9.5 -5.828125 C 10.269531 -6.546875 10.65625 -7.4375 10.65625 -8.5 L 10.65625 -75.453125 C 10.65625 -76.515625 10.269531 -77.425781 9.5 -78.1875 C 8.738281 -78.957031 7.828125 -79.34375 6.765625 -79.34375 L 4.609375 -79.34375 Z M 4.609375 -84.09375 "/></g></g></g><g fill="#231f20" fill-opacity="1"><g transform="translate(703.031358, 1214.792107)"><g><path d="M 4.609375 -84.09375 L 33.984375 -83.953125 L 33.984375 -79.34375 L 31.96875 -79.34375 C 30.914062 -79.34375 30.003906 -78.957031 29.234375 -78.1875 C 28.460938 -77.425781 28.078125 -76.515625 28.078125 -75.453125 L 28.078125 -35.421875 L 68.25 -74.296875 C 68.726562 -74.785156 68.96875 -75.410156 68.96875 -76.171875 C 68.96875 -76.941406 68.726562 -77.613281 68.25 -78.1875 C 67.769531 -78.769531 67.148438 -79.0625 66.390625 -79.0625 L 64.21875 -79.0625 L 64.21875 -83.953125 L 87.546875 -83.953125 L 87.546875 -79.0625 L 85.25 -79.0625 C 81.5 -79.0625 78.234375 -77.664062 75.453125 -74.875 L 54.28125 -54.28125 L 82.9375 -8.359375 C 83.519531 -7.296875 84.363281 -6.476562 85.46875 -5.90625 C 86.570312 -5.332031 87.742188 -5.046875 88.984375 -5.046875 L 91.15625 -5.046875 L 91.15625 0 L 74.875 0 C 71.425781 0 68.785156 -1.535156 66.953125 -4.609375 L 42.484375 -42.90625 L 28.078125 -28.9375 L 28.078125 -8.5 C 28.078125 -7.4375 28.460938 -6.546875 29.234375 -5.828125 C 30.003906 -5.109375 30.914062 -4.75 31.96875 -4.75 L 33.984375 -4.75 L 33.984375 0 L 4.609375 0 L 4.609375 -4.75 L 6.765625 -4.75 C 7.828125 -4.75 8.738281 -5.109375 9.5 -5.828125 C 10.269531 -6.546875 10.65625 -7.4375 10.65625 -8.5 L 10.65625 -75.453125 C 10.65625 -76.515625 10.269531 -77.425781 9.5 -78.1875 C 8.738281 -78.957031 7.828125 -79.34375 6.765625 -79.34375 L 4.609375 -79.34375 Z M 4.609375 -84.09375 "/></g></g></g><g fill="#231f20" fill-opacity="1"><g transform="translate(795.335297, 1214.792107)"><g><path d="M 34.265625 -85.828125 C 39.742188 -85.828125 44.445312 -85.15625 48.375 -83.8125 C 52.3125 -82.46875 55.53125 -80.878906 58.03125 -79.046875 C 60.53125 -77.222656 62.351562 -75.640625 63.5 -74.296875 C 64.65625 -72.953125 65.234375 -72.28125 65.234375 -72.28125 L 65.234375 -62.203125 L 60.625 -62.203125 L 60.484375 -63.5 C 60.097656 -66.382812 58.921875 -69.171875 56.953125 -71.859375 C 54.984375 -74.546875 52.363281 -76.753906 49.09375 -78.484375 C 45.832031 -80.210938 42.140625 -81.078125 38.015625 -81.078125 C 33.691406 -81.078125 30.113281 -80.019531 27.28125 -77.90625 C 24.457031 -75.789062 23.046875 -72.625 23.046875 -68.40625 C 23.046875 -62.257812 26.210938 -57.550781 32.546875 -54.28125 L 55.296875 -42.625 C 60.097656 -40.226562 63.601562 -37.375 65.8125 -34.0625 C 68.019531 -30.75 69.125 -26.832031 69.125 -22.3125 C 69.125 -14.832031 66.289062 -8.953125 60.625 -4.671875 C 54.957031 -0.398438 47.515625 1.734375 38.296875 1.734375 C 32.441406 1.734375 27.425781 1.035156 23.25 -0.359375 C 19.070312 -1.753906 15.6875 -3.335938 13.09375 -5.109375 C 10.507812 -6.890625 8.613281 -8.472656 7.40625 -9.859375 C 6.207031 -11.253906 5.609375 -11.953125 5.609375 -11.953125 L 5.609375 -21.75 L 10.21875 -21.75 L 10.375 -20.59375 C 10.75 -17.613281 12.085938 -14.78125 14.390625 -12.09375 C 16.703125 -9.40625 19.679688 -7.195312 23.328125 -5.46875 C 26.972656 -3.738281 30.957031 -2.875 35.28125 -2.875 C 40.363281 -2.875 44.394531 -4.070312 47.375 -6.46875 C 50.351562 -8.875 51.84375 -12.191406 51.84375 -16.421875 C 51.84375 -19.003906 51.117188 -21.398438 49.671875 -23.609375 C 48.234375 -25.816406 45.691406 -27.832031 42.046875 -29.65625 L 20.59375 -40.609375 C 15.3125 -43.296875 11.492188 -46.242188 9.140625 -49.453125 C 6.785156 -52.671875 5.609375 -56.585938 5.609375 -61.203125 C 5.609375 -68.691406 8.203125 -74.664062 13.390625 -79.125 C 18.578125 -83.59375 25.535156 -85.828125 34.265625 -85.828125 Z M 34.265625 -85.828125 "/></g></g></g><g fill="#231f20" fill-opacity="1"><g transform="translate(869.927263, 1214.792107)"><g><path d="M 60.484375 -84.09375 L 89.859375 -83.953125 L 89.859375 -79.34375 L 87.84375 -79.34375 C 86.78125 -79.34375 85.84375 -78.957031 85.03125 -78.1875 C 84.21875 -77.425781 83.8125 -76.515625 83.8125 -75.453125 L 83.8125 -8.5 C 83.8125 -7.4375 84.21875 -6.546875 85.03125 -5.828125 C 85.84375 -5.109375 86.78125 -4.75 87.84375 -4.75 L 89.859375 -4.75 L 89.859375 0 L 60.484375 0 L 60.484375 -4.75 L 62.5 -4.75 C 63.550781 -4.75 64.460938 -5.109375 65.234375 -5.828125 C 66.003906 -6.546875 66.390625 -7.4375 66.390625 -8.5 L 66.390625 -39.75 L 28.078125 -39.75 L 28.078125 -8.5 C 28.078125 -7.4375 28.460938 -6.546875 29.234375 -5.828125 C 30.003906 -5.109375 30.914062 -4.75 31.96875 -4.75 L 33.984375 -4.75 L 33.984375 0 L 4.609375 0 L 4.609375 -4.75 L 6.765625 -4.75 C 7.828125 -4.75 8.738281 -5.109375 9.5 -5.828125 C 10.269531 -6.546875 10.65625 -7.4375 10.65625 -8.5 L 10.65625 -75.453125 C 10.65625 -76.796875 10.269531 -77.78125 9.5 -78.40625 C 8.738281 -79.03125 7.828125 -79.34375 6.765625 -79.34375 L 4.609375 -79.34375 L 4.609375 -84.09375 L 33.984375 -83.953125 L 33.984375 -79.34375 L 31.96875 -79.34375 C 30.914062 -79.34375 30.003906 -78.957031 29.234375 -78.1875 C 28.460938 -77.425781 28.078125 -76.515625 28.078125 -75.453125 L 28.078125 -44.359375 L 66.390625 -44.359375 L 66.390625 -75.453125 C 66.390625 -76.515625 66.003906 -77.425781 65.234375 -78.1875 C 64.460938 -78.957031 63.550781 -79.34375 62.5 -79.34375 L 60.484375 -79.34375 Z M 60.484375 -84.09375 "/></g></g></g><g fill="#231f20" fill-opacity="1"><g transform="translate(964.391229, 1214.792107)"><g><path d="M 41.046875 -85.828125 L 45.640625 -85.828125 L 75.75 -9.359375 C 76.320312 -7.921875 77.253906 -6.789062 78.546875 -5.96875 C 79.847656 -5.15625 81.265625 -4.75 82.796875 -4.75 L 85.53125 -4.75 L 85.53125 0 L 52.265625 0 L 52.265625 -4.75 L 55.875 -4.75 C 56.445312 -4.75 56.945312 -5.015625 57.375 -5.546875 C 57.8125 -6.078125 57.882812 -6.675781 57.59375 -7.34375 L 50.828125 -25.34375 L 21.890625 -25.34375 L 14.96875 -7.34375 C 14.6875 -6.675781 14.757812 -6.078125 15.1875 -5.546875 C 15.625 -5.015625 16.128906 -4.75 16.703125 -4.75 L 20.59375 -4.75 L 20.59375 0 L 1.15625 0 L 1.15625 -4.75 L 3.75 -4.75 C 5.28125 -4.75 6.691406 -5.15625 7.984375 -5.96875 C 9.285156 -6.789062 10.222656 -7.921875 10.796875 -9.359375 Z M 23.609375 -29.953125 L 49.109375 -29.953125 L 36.4375 -63.21875 Z M 23.609375 -29.953125 "/></g></g></g></svg>