<svg xmlns="http://www.w3.org/2000/svg" xmlns:xlink="http://www.w3.org/1999/xlink" width="748" zoomAndPan="magnify" viewBox="376 21 748 915" height="915" preserveAspectRatio="xMidYMid meet" version="1.0"><defs><g/><clipPath id="7b81906de0"><path d="M 757.0625 184.054688 L 1103.859375 184.054688 L 1103.859375 925.527344 L 757.0625 925.527344 Z M 757.0625 184.054688 " clip-rule="nonzero"/></clipPath><clipPath id="2c0c2c1aa9"><path d="M 395.859375 184 L 743 184 L 743 925.828125 L 395.859375 925.828125 Z M 395.859375 184 " clip-rule="nonzero"/></clipPath><clipPath id="fc680a7951"><path d="M 684 41.578125 L 815 41.578125 L 815 172 L 684 172 Z M 684 41.578125 " clip-rule="nonzero"/></clipPath></defs><path fill="#ffffff" d="M 959.859375 302.273438 C 983.480469 322.117188 986.539062 357.351562 966.691406 380.96875 C 946.847656 404.585938 911.613281 407.644531 887.996094 387.800781 C 864.382812 367.957031 861.316406 332.722656 881.167969 309.101562 C 901.007812 285.484375 936.242188 282.425781 959.859375 302.273438 " fill-opacity="1" fill-rule="nonzero"/><path fill="#ffffff" d="M 1024.847656 359.113281 C 1025.539062 360.5625 1025.378906 362.347656 1024.273438 363.65625 C 1023.167969 364.972656 1021.441406 365.4375 1019.890625 365.007812 L 1019.5 365.476562 L 1007.164062 391.980469 L 992.828125 379.933594 L 1016.8125 363.21875 L 1017.207031 362.75 C 1016.511719 361.296875 1016.675781 359.511719 1017.78125 358.203125 C 1018.878906 356.886719 1020.609375 356.421875 1022.160156 356.851562 L 1042.367188 332.804688 L 1027.835938 306.832031 L 1034.839844 330.285156 L 1018.210938 324.71875 L 992.167969 355.71875 C 995.742188 332.621094 987.535156 308.25 968.375 292.144531 C 949.527344 276.308594 924.640625 272.308594 902.765625 279.3125 L 928.175781 249.066406 L 907.816406 211.453125 L 1007.382812 246.207031 L 1058.769531 338.289062 L 1045.945312 334 L 1024.847656 359.113281 " fill-opacity="1" fill-rule="nonzero"/><g clip-path="url(#7b81906de0)"><path fill="#ffffff" d="M 885.382812 818.742188 C 885.382812 818.742188 796.507812 794.332031 795.824219 632.734375 C 795.53125 563.796875 807.863281 508.726562 786.339844 408.832031 C 764.820312 308.9375 750.402344 244.265625 761.378906 184.929688 C 761.378906 184.929688 781.15625 317.105469 885.382812 379.554688 C 1016.320312 458 1073.117188 543.171875 1069.671875 644.789062 C 1069.671875 644.789062 1028.75 543.46875 934.679688 517.011719 C 934.679688 517.011719 927.3125 801.523438 1104.117188 925.527344 C 1104.117188 925.527344 953.296875 899.183594 856.105469 656.84375 C 856.105469 656.84375 842.328125 770.519531 885.382812 818.742188 " fill-opacity="1" fill-rule="nonzero"/></g><path fill="#e8611a" d="M 540.113281 302.273438 C 516.5 322.117188 513.4375 357.351562 533.285156 380.96875 C 553.128906 404.585938 588.363281 407.644531 611.980469 387.800781 C 635.597656 367.957031 638.65625 332.722656 618.8125 309.101562 C 598.964844 285.484375 563.730469 282.425781 540.113281 302.273438 " fill-opacity="1" fill-rule="nonzero"/><path fill="#e8611a" d="M 475.132812 359.113281 C 474.4375 360.5625 474.601562 362.347656 475.707031 363.65625 C 476.804688 364.972656 478.535156 365.4375 480.085938 365.007812 L 480.476562 365.476562 L 492.816406 391.980469 L 507.148438 379.933594 L 483.167969 363.21875 L 482.773438 362.75 C 483.464844 361.296875 483.304688 359.511719 482.199219 358.203125 C 481.09375 356.886719 479.367188 356.421875 477.816406 356.851562 L 457.613281 332.804688 L 472.136719 306.832031 L 465.140625 330.285156 L 481.769531 324.71875 L 507.8125 355.71875 C 504.234375 332.621094 512.441406 308.25 531.605469 292.144531 C 550.449219 276.308594 575.339844 272.308594 597.207031 279.3125 L 571.804688 249.066406 L 592.15625 211.453125 L 492.597656 246.207031 L 441.207031 338.289062 L 454.03125 334 L 475.132812 359.113281 " fill-opacity="1" fill-rule="nonzero"/><g clip-path="url(#2c0c2c1aa9)"><path fill="#e8611a" d="M 614.597656 818.742188 C 614.597656 818.742188 703.46875 794.332031 704.15625 632.734375 C 704.449219 563.796875 692.113281 508.726562 713.632812 408.832031 C 735.15625 308.9375 749.574219 244.265625 738.601562 184.929688 C 738.601562 184.929688 718.820312 317.105469 614.597656 379.554688 C 483.660156 458 426.859375 543.171875 430.304688 644.789062 C 430.304688 644.789062 471.222656 543.46875 565.300781 517.011719 C 565.300781 517.011719 572.667969 801.523438 395.859375 925.527344 C 395.859375 925.527344 546.675781 899.183594 643.875 656.84375 C 643.875 656.84375 657.652344 770.519531 614.597656 818.742188 " fill-opacity="1" fill-rule="nonzero"/></g><g clip-path="url(#fc680a7951)"><path fill="#ffd700" d="M 747.605469 158.492188 L 749.617188 171.679688 L 751.40625 158.457031 C 754.902344 132.542969 775.0625 112.027344 800.914062 108.085938 L 814.105469 106.078125 L 800.878906 104.289062 C 774.964844 100.792969 754.453125 80.632812 750.511719 54.777344 L 748.496094 41.589844 L 746.710938 54.8125 C 743.214844 80.726562 723.054688 101.238281 697.203125 105.183594 L 684.011719 107.195312 L 697.238281 108.980469 C 723.152344 112.476562 743.660156 132.640625 747.605469 158.492188 " fill-opacity="1" fill-rule="nonzero"/></g><g fill="#000000" fill-opacity="1"><g transform="translate(182.513103, 1390.456276)"><g/></g></g></svg>